<svg xmlns="http://www.w3.org/2000/svg" xmlns:xlink="http://www.w3.org/1999/xlink" id="processonSvg1000" viewBox="138.0 31.0 914.0 525.0" width="914.0" height="525.0"><defs id="ProcessOnDefs1001"><marker id="ProcessOnMarker1085" markerUnits="userSpaceOnUse" orient="auto" markerWidth="20.609529741924973" markerHeight="10.888175666885001" viewBox="-2.3047648709624866 -1.5914908829822711 20.609529741924973 10.888175666885001" refX="0.0" refY="3.8525969504602293"><path id="ProcessOnPath1086" d="M0 3.8525969504602293L8.0 0L16.0 3.8525969504602293L8.0 7.705193900920459Z" stroke="#323232" stroke-width="2.0" fill="#fff"/></marker><marker id="ProcessOnMarker1089" markerUnits="userSpaceOnUse" orient="auto" markerWidth="20.609529741924973" markerHeight="10.888175666885001" viewBox="-2.3047648709624866 -1.5914908829822711 20.609529741924973 10.888175666885001" refX="0.0" refY="3.8525969504602293"><path id="ProcessOnPath1090" d="M0 3.8525969504602293L8.0 0L16.0 3.8525969504602293L8.0 7.705193900920459Z" stroke="#323232" stroke-width="2.0" fill="#fff"/></marker><marker id="ProcessOnMarker1093" markerUnits="userSpaceOnUse" orient="auto" markerWidth="16.23606797749979" markerHeight="10.550836550532098" viewBox="-1.0 -1.3763819204711736 16.23606797749979 10.550836550532098" refX="15.23606797749979" refY="3.8990363547948754"><path id="ProcessOnPath1094" d="M12.0 3.8990363547948754L0.0 7.798072709589751V0.0Z" stroke="#323232" stroke-width="2.0" fill="#fff" transform="matrix(-1.0,1.2246467991473532E-16,-1.2246467991473532E-16,-1.0,14.23606797749979,7.798072709589751)"/></marker></defs><g id="ProcessOnG1002"><path id="ProcessOnPath1003" d="M138.0 31.0H1052.0V556.0H138.0V31.0Z" fill="none"/><g id="ProcessOnG1004"><g id="ProcessOnG1005" transform="matrix(1.0,0.0,0.0,1.0,802.0,358.0)" opacity="1.0"><path id="ProcessOnPath1006" d="M0.0 4.0Q0.0 0.0 4.0 0.0L226.0 0.0Q230.0 0.0 230.0 4.0L230.0 91.0Q230.0 95.0 226.0 95.0L4.0 95.0Q0.0 95.0 0.0 91.0Z" stroke="#323232" stroke-width="2.0" stroke-dasharray="none" opacity="1.0" fill="#ffffff"/><path id="ProcessOnPath1007" d="M0.0 30.0L230.0 30.0" stroke="#323232" stroke-width="2.0" stroke-dasharray="none" opacity="1.0" fill="none"/><path id="ProcessOnPath1008" d="M0.0 0.0L230.0 0.0L230.0 95.0L0.0 95.0Z" stroke="none" stroke-width="0.0" stroke-dasharray="none" opacity="1.0" fill="none"/><g id="ProcessOnG1009" transform="matrix(1.0,0.0,0.0,1.0,10.0,6.875)"><text id="ProcessOnText1010" fill="#000000" font-size="13" x="104.0" y="13.325" font-family="Arial" font-weight="bold" font-style="normal" text-decoration="none" family="Arial" text-anchor="middle" size="13">InterfaceSubscription</text></g><g id="ProcessOnG1011" transform="matrix(1.0,0.0,0.0,1.0,10.0,30.0)"><text id="ProcessOnText1012" fill="#000000" font-size="13" x="104.0" y="13.325" font-family="Arial" font-weight="bold" font-style="normal" text-decoration="none" family="Arial" text-anchor="middle" size="13">+ getName() : String</text><text id="ProcessOnText1013" fill="#000000" font-size="13" x="104.0" y="29.575" font-family="Arial" font-weight="bold" font-style="normal" text-decoration="none" family="Arial" text-anchor="middle" size="13">+ getDate() : MyDate</text><text id="ProcessOnText1014" fill="#000000" font-size="13" x="104.0" y="45.825" font-family="Arial" font-weight="bold" font-style="normal" text-decoration="none" family="Arial" text-anchor="middle" size="13">+ getCharge() : Double</text><text id="ProcessOnText1015" fill="#000000" font-size="13" x="104.0" y="62.075" font-family="Arial" font-weight="bold" font-style="normal" text-decoration="none" family="Arial" text-anchor="middle" size="13">+ getComment() : String</text></g></g><g id="ProcessOnG1016" transform="matrix(1.0,0.0,0.0,1.0,158.0,362.0)" opacity="1.0"><path id="ProcessOnPath1017" d="M0.0 4.0Q0.0 0.0 4.0 0.0L226.0 0.0Q230.0 0.0 230.0 4.0L230.0 124.0Q230.0 128.0 226.0 128.0L4.0 128.0Q0.0 128.0 0.0 124.0Z" stroke="#323232" stroke-width="2.0" stroke-dasharray="none" opacity="1.0" fill="#ffffff"/><path id="ProcessOnPath1018" d="M0.0 30.0L230.0 30.0M0.0 79.0L230.0 79.0" stroke="#323232" stroke-width="2.0" stroke-dasharray="none" opacity="1.0" fill="none"/><path id="ProcessOnPath1019" d="M0.0 0.0L230.0 0.0L230.0 128.0L0.0 128.0Z" stroke="none" stroke-width="0.0" stroke-dasharray="none" opacity="1.0" fill="none"/><g id="ProcessOnG1020" transform="matrix(1.0,0.0,0.0,1.0,10.0,6.875)"><text id="ProcessOnText1021" fill="#000000" font-size="13" x="104.0" y="13.325" font-family="Arial" font-weight="bold" font-style="normal" text-decoration="none" family="Arial" text-anchor="middle" size="13">MyDate</text></g><g id="ProcessOnG1022" transform="matrix(1.0,0.0,0.0,1.0,10.0,30.125)"><text id="ProcessOnText1023" fill="#000000" font-size="13" x="104.0" y="13.325" font-family="Arial" font-weight="bold" font-style="normal" text-decoration="none" family="Arial" text-anchor="middle" size="13">- year : int</text><text id="ProcessOnText1024" fill="#000000" font-size="13" x="104.0" y="29.575" font-family="Arial" font-weight="bold" font-style="normal" text-decoration="none" family="Arial" text-anchor="middle" size="13">- month : int</text><text id="ProcessOnText1025" fill="#000000" font-size="13" x="104.0" y="45.825" font-family="Arial" font-weight="bold" font-style="normal" text-decoration="none" family="Arial" text-anchor="middle" size="13">- day : int</text></g><g id="ProcessOnG1026" transform="matrix(1.0,0.0,0.0,1.0,10.0,79.125)"><text id="ProcessOnText1027" fill="#000000" font-size="13" x="104.0" y="13.325" font-family="Arial" font-weight="bold" font-style="normal" text-decoration="none" family="Arial" text-anchor="middle" size="13">+ getYear() : int</text><text id="ProcessOnText1028" fill="#000000" font-size="13" x="104.0" y="29.575" font-family="Arial" font-weight="bold" font-style="normal" text-decoration="none" family="Arial" text-anchor="middle" size="13">+ getMonth() : int</text><text id="ProcessOnText1029" fill="#000000" font-size="13" x="104.0" y="45.825" font-family="Arial" font-weight="bold" font-style="normal" text-decoration="none" family="Arial" text-anchor="middle" size="13">+ getDay() : int</text></g></g><g id="ProcessOnG1030" transform="matrix(1.0,0.0,0.0,1.0,457.5,346.0)" opacity="1.0"><path id="ProcessOnPath1031" d="M0.0 4.0Q0.0 0.0 4.0 0.0L226.0 0.0Q230.0 0.0 230.0 4.0L230.0 156.0Q230.0 160.0 226.0 160.0L4.0 160.0Q0.0 160.0 0.0 156.0Z" stroke="#323232" stroke-width="2.0" stroke-dasharray="none" opacity="1.0" fill="#ffffff"/><path id="ProcessOnPath1032" d="M0.0 30.0L230.0 30.0M0.0 95.0L230.0 95.0" stroke="#323232" stroke-width="2.0" stroke-dasharray="none" opacity="1.0" fill="none"/><path id="ProcessOnPath1033" d="M0.0 0.0L230.0 0.0L230.0 160.0L0.0 160.0Z" stroke="none" stroke-width="0.0" stroke-dasharray="none" opacity="1.0" fill="none"/><g id="ProcessOnG1034" transform="matrix(1.0,0.0,0.0,1.0,10.0,6.875)"><text id="ProcessOnText1035" fill="#000000" font-size="13" x="104.0" y="13.325" font-family="Arial" font-weight="bold" font-style="normal" text-decoration="none" family="Arial" text-anchor="middle" size="13">Subscription</text></g><g id="ProcessOnG1036" transform="matrix(1.0,0.0,0.0,1.0,10.0,30.0)"><text id="ProcessOnText1037" fill="#000000" font-size="13" x="104.0" y="13.325" font-family="Arial" font-weight="bold" font-style="normal" text-decoration="none" family="Arial" text-anchor="middle" size="13">- name : String</text><text id="ProcessOnText1038" fill="#000000" font-size="13" x="104.0" y="29.575" font-family="Arial" font-weight="bold" font-style="normal" text-decoration="none" family="Arial" text-anchor="middle" size="13">- date : MyDate</text><text id="ProcessOnText1039" fill="#000000" font-size="13" x="104.0" y="45.825" font-family="Arial" font-weight="bold" font-style="normal" text-decoration="none" family="Arial" text-anchor="middle" size="13">- charge : Double</text><text id="ProcessOnText1040" fill="#000000" font-size="13" x="104.0" y="62.075" font-family="Arial" font-weight="bold" font-style="normal" text-decoration="none" family="Arial" text-anchor="middle" size="13">- comment : String</text></g><g id="ProcessOnG1041" transform="matrix(1.0,0.0,0.0,1.0,10.0,95.0)"><text id="ProcessOnText1042" fill="#000000" font-size="13" x="104.0" y="13.325" font-family="Arial" font-weight="bold" font-style="normal" text-decoration="none" family="Arial" text-anchor="middle" size="13">+ getName : String</text><text id="ProcessOnText1043" fill="#000000" font-size="13" x="104.0" y="29.575" font-family="Arial" font-weight="bold" font-style="normal" text-decoration="none" family="Arial" text-anchor="middle" size="13">+ getDate : MyDate</text><text id="ProcessOnText1044" fill="#000000" font-size="13" x="104.0" y="45.825" font-family="Arial" font-weight="bold" font-style="normal" text-decoration="none" family="Arial" text-anchor="middle" size="13">+ getCharge : Double</text><text id="ProcessOnText1045" fill="#000000" font-size="13" x="104.0" y="62.075" font-family="Arial" font-weight="bold" font-style="normal" text-decoration="none" family="Arial" text-anchor="middle" size="13">+ getComment : String</text></g></g><g id="ProcessOnG1046" transform="matrix(1.0,0.0,0.0,1.0,706.0,75.0)" opacity="1.0"><path id="ProcessOnPath1047" d="M0.0 4.0Q0.0 0.0 4.0 0.0L297.0 0.0Q301.0 0.0 301.0 4.0L301.0 172.0Q301.0 176.0 297.0 176.0L4.0 176.0Q0.0 176.0 0.0 172.0Z" stroke="#323232" stroke-width="2.0" stroke-dasharray="none" opacity="1.0" fill="#ffffff"/><path id="ProcessOnPath1048" d="M0.0 30.0L301.0 30.0M0.0 79.0L301.0 79.0" stroke="#323232" stroke-width="2.0" stroke-dasharray="none" opacity="1.0" fill="none"/><path id="ProcessOnPath1049" d="M0.0 0.0L301.0 0.0L301.0 176.0L0.0 176.0Z" stroke="none" stroke-width="0.0" stroke-dasharray="none" opacity="1.0" fill="none"/><g id="ProcessOnG1050" transform="matrix(1.0,0.0,0.0,1.0,10.0,6.875)"><text id="ProcessOnText1051" fill="#000000" font-size="13" x="139.5" y="13.325" font-family="Arial" font-weight="bold" font-style="normal" text-decoration="none" family="Arial" text-anchor="middle" size="13">MainActivity</text></g><g id="ProcessOnG1052" transform="matrix(1.0,0.0,0.0,1.0,10.0,30.125)"><text id="ProcessOnText1053" fill="#000000" font-size="13" x="139.5" y="13.325" font-family="Arial" font-weight="bold" font-style="normal" text-decoration="none" family="Arial" text-anchor="middle" size="13">- oldSubscriptionList : ListView</text><text id="ProcessOnText1054" fill="#000000" font-size="13" x="139.5" y="29.575" font-family="Arial" font-weight="bold" font-style="normal" text-decoration="none" family="Arial" text-anchor="middle" size="13">- SubscriptionList : ArrayList&lt;Subscription&gt;</text><text id="ProcessOnText1055" fill="#000000" font-size="13" x="139.5" y="45.825" font-family="Arial" font-weight="bold" font-style="normal" text-decoration="none" family="Arial" text-anchor="middle" size="13">- adapter : ArrayAdapter&lt;Subscription&gt;</text></g><g id="ProcessOnG1056" transform="matrix(1.0,0.0,0.0,1.0,10.0,78.75)"><text id="ProcessOnText1057" fill="#000000" font-size="13" x="139.5" y="13.325" font-family="Arial" font-weight="bold" font-style="normal" text-decoration="none" family="Arial" text-anchor="middle" size="13">+ toAdd(View)</text><text id="ProcessOnText1058" fill="#000000" font-size="13" x="139.5" y="29.575" font-family="Arial" font-weight="bold" font-style="normal" text-decoration="none" family="Arial" text-anchor="middle" size="13">- loadFromFile()</text><text id="ProcessOnText1059" fill="#000000" font-size="13" x="139.5" y="45.825" font-family="Arial" font-weight="bold" font-style="normal" text-decoration="none" family="Arial" text-anchor="middle" size="13">- saveInFile()</text><text id="ProcessOnText1060" fill="#000000" font-size="13" x="139.5" y="62.075" font-family="Arial" font-weight="bold" font-style="normal" text-decoration="none" family="Arial" text-anchor="middle" size="13">- onCreate(Bundle)</text><text id="ProcessOnText1061" fill="#000000" font-size="13" x="139.5" y="78.325" font-family="Arial" font-weight="bold" font-style="normal" text-decoration="none" family="Arial" text-anchor="middle" size="13">- onStart()</text><text id="ProcessOnText1062" fill="#000000" font-size="13" x="139.5" y="94.575" font-family="Arial" font-weight="bold" font-style="normal" text-decoration="none" family="Arial" text-anchor="middle" size="13">- onActivityResult(int, int, intent)</text></g></g><g id="ProcessOnG1063" transform="matrix(1.0,0.0,0.0,1.0,254.0,51.0)" opacity="1.0"><path id="ProcessOnPath1064" d="M0.0 4.0Q0.0 0.0 4.0 0.0L226.0 0.0Q230.0 0.0 230.0 4.0L230.0 220.0Q230.0 224.0 226.0 224.0L4.0 224.0Q0.0 224.0 0.0 220.0Z" stroke="#323232" stroke-width="2.0" stroke-dasharray="none" opacity="1.0" fill="#ffffff"/><path id="ProcessOnPath1065" d="M0.0 30.0L230.0 30.0M0.0 193.0L230.0 193.0" stroke="#323232" stroke-width="2.0" stroke-dasharray="none" opacity="1.0" fill="none"/><path id="ProcessOnPath1066" d="M0.0 0.0L230.0 0.0L230.0 224.0L0.0 224.0Z" stroke="none" stroke-width="0.0" stroke-dasharray="none" opacity="1.0" fill="none"/><g id="ProcessOnG1067" transform="matrix(1.0,0.0,0.0,1.0,10.0,6.875)"><text id="ProcessOnText1068" fill="#000000" font-size="13" x="104.0" y="13.325" font-family="Arial" font-weight="bold" font-style="normal" text-decoration="none" family="Arial" text-anchor="middle" size="13">AddSubscriptionActivity</text></g><g id="ProcessOnG1069" transform="matrix(1.0,0.0,0.0,1.0,10.0,29.25)"><text id="ProcessOnText1070" fill="#000000" font-size="13" x="104.0" y="13.325" font-family="Arial" font-weight="bold" font-style="normal" text-decoration="none" family="Arial" text-anchor="middle" size="13">+ SubscriptionName : String</text><text id="ProcessOnText1071" fill="#000000" font-size="13" x="104.0" y="29.575" font-family="Arial" font-weight="bold" font-style="normal" text-decoration="none" family="Arial" text-anchor="middle" size="13">+ year : int</text><text id="ProcessOnText1072" fill="#000000" font-size="13" x="104.0" y="45.825" font-family="Arial" font-weight="bold" font-style="normal" text-decoration="none" family="Arial" text-anchor="middle" size="13">+ month : int</text><text id="ProcessOnText1073" fill="#000000" font-size="13" x="104.0" y="62.075" font-family="Arial" font-weight="bold" font-style="normal" text-decoration="none" family="Arial" text-anchor="middle" size="13">+ day : int</text><text id="ProcessOnText1074" fill="#000000" font-size="13" x="104.0" y="78.325" font-family="Arial" font-weight="bold" font-style="normal" text-decoration="none" family="Arial" text-anchor="middle" size="13">+ SubscriptionCharge : Double</text><text id="ProcessOnText1075" fill="#000000" font-size="13" x="104.0" y="94.575" font-family="Arial" font-weight="bold" font-style="normal" text-decoration="none" family="Arial" text-anchor="middle" size="13">+ SubscriptionComment : String</text><text id="ProcessOnText1076" fill="#000000" font-size="13" x="104.0" y="110.825" font-family="Arial" font-weight="bold" font-style="normal" text-decoration="none" family="Arial" text-anchor="middle" size="13">+ DoubleCharge : Double</text><text id="ProcessOnText1077" fill="#000000" font-size="13" x="104.0" y="127.075" font-family="Arial" font-weight="bold" font-style="normal" text-decoration="none" family="Arial" text-anchor="middle" size="13">+ chooseDate : Button</text><text id="ProcessOnText1078" fill="#000000" font-size="13" x="104.0" y="143.325" font-family="Arial" font-weight="bold" font-style="normal" text-decoration="none" family="Arial" text-anchor="middle" size="13">+ addSubscription : Button</text><text id="ProcessOnText1079" fill="#000000" font-size="13" x="104.0" y="159.575" font-family="Arial" font-weight="bold" font-style="normal" text-decoration="none" family="Arial" text-anchor="middle" size="13">+ discardSubscription : Button</text></g><g id="ProcessOnG1080" transform="matrix(1.0,0.0,0.0,1.0,10.0,193.25)"><text id="ProcessOnText1081" fill="#000000" font-size="13" x="104.0" y="13.325" font-family="Arial" font-weight="bold" font-style="normal" text-decoration="none" family="Arial" text-anchor="middle" size="13">+ onCreate(Bundle)</text><text id="ProcessOnText1082" fill="#000000" font-size="13" x="104.0" y="29.575" font-family="Arial" font-weight="bold" font-style="normal" text-decoration="none" family="Arial" text-anchor="middle" size="13">- onCreateDialog(int)</text></g></g><g id="ProcessOnG1083"><path id="ProcessOnPath1084" d="M388.0 426.0L422.75 426.0L422.75 426.0L439.19523512903754 426.0" stroke="#323232" stroke-width="2.0" stroke-dasharray="none" fill="none" marker-end="url(#ProcessOnMarker1085)"/></g><g id="ProcessOnG1087"><path id="ProcessOnPath1088" d="M572.5 346.0L572.5 310.5L369.0 310.5L369.0 293.30476487096246" stroke="#323232" stroke-width="2.0" stroke-dasharray="none" fill="none" marker-end="url(#ProcessOnMarker1089)"/></g><g id="ProcessOnG1091"><path id="ProcessOnPath1092" d="M786.7639320225002 405.5L772.0 405.5L772.0 536.0L561.0 536.0L561.0 506.0" stroke="#323232" stroke-width="2.0" stroke-dasharray="10.0 4.0" fill="none" marker-start="url(#ProcessOnMarker1093)"/></g><g id="ProcessOnG1095"><path id="ProcessOnPath1096" d="M484.0 163.0L595.0 163.0L595.0 163.0L706.0 163.0" stroke="#323232" stroke-width="2.0" stroke-dasharray="none" fill="none"/></g></g></g></svg>